<?xml version="1.0" standalone="no"?>
<!DOCTYPE svg PUBLIC "-//W3C//DTD SVG 20010904//EN"
 "http://www.w3.org/TR/2001/REC-SVG-20010904/DTD/svg10.dtd">
<svg version="1.0" xmlns="http://www.w3.org/2000/svg"
 width="1000.000000pt" height="1000.000000pt" viewBox="0 0 1000.000000 1000.000000"
 preserveAspectRatio="xMidYMid meet">
<metadata>
Created by potrace 1.11, written by Peter Selinger 2001-2013
</metadata>
<g transform="translate(0.000000,1000.000000) scale(0.100000,-0.100000)"
fill="#000000" stroke="none">
<path d="M5227 8214 c-1 -1 -69 -4 -152 -7 -110 -5 -177 -13 -250 -31 -55 -13
-120 -28 -145 -32 -59 -10 -234 -11 -390 -2 -280 16 -322 17 -406 7 -49 -5
-138 -21 -199 -35 -236 -55 -316 -86 -465 -182 -237 -153 -289 -188 -340 -226
-30 -23 -57 -43 -60 -47 -3 -3 -14 -12 -26 -20 -88 -61 -397 -362 -485 -474
-50 -63 -128 -171 -154 -214 -5 -9 -12 -18 -16 -21 -9 -8 -95 -162 -110 -197
-8 -18 -17 -33 -21 -33 -5 0 -8 -6 -8 -14 0 -8 -7 -22 -16 -30 -8 -9 -12 -20
-9 -26 3 -5 2 -10 -2 -10 -10 0 -79 -151 -76 -162 2 -5 -2 -8 -9 -8 -6 0 -9
-3 -5 -6 3 -3 -3 -21 -14 -41 -11 -19 -21 -42 -23 -51 -1 -9 -9 -30 -16 -47
-7 -16 -14 -34 -15 -40 -2 -5 -12 -44 -23 -85 -12 -41 -23 -88 -26 -105 -3
-16 -8 -43 -11 -60 -4 -16 -8 -46 -11 -65 -10 -80 -16 -110 -33 -164 -15 -47
-30 -174 -33 -286 -1 -39 14 -490 17 -530 9 -93 16 -157 21 -180 2 -14 7 -41
10 -60 5 -34 19 -111 30 -160 3 -14 7 -40 10 -57 5 -38 44 -196 67 -278 45
-153 107 -334 139 -402 15 -34 28 -64 28 -68 0 -4 22 -57 49 -119 26 -61 51
-118 55 -126 3 -8 15 -29 25 -46 10 -17 29 -51 42 -75 34 -62 139 -218 171
-253 15 -17 33 -41 40 -55 7 -15 15 -28 18 -31 3 -3 30 -36 60 -75 55 -70 68
-85 171 -192 86 -88 209 -199 209 -186 0 3 26 -20 58 -53 51 -54 195 -176 252
-214 12 -8 28 -20 34 -26 6 -5 26 -19 44 -29 17 -11 32 -23 32 -27 0 -4 5 -8
10 -8 6 0 16 -5 23 -10 28 -23 87 -59 87 -52 0 4 4 2 8 -4 12 -18 231 -124
332 -161 92 -34 111 -39 158 -49 12 -2 32 -6 45 -8 12 -3 33 -7 46 -10 33 -7
120 -16 211 -21 109 -6 124 -11 137 -45 7 -18 21 -32 36 -35 14 -4 27 -15 30
-25 3 -10 18 -21 36 -25 17 -4 31 -13 31 -21 0 -8 6 -14 14 -14 8 0 16 -6 19
-14 3 -7 23 -17 44 -21 21 -3 66 -20 101 -37 35 -16 83 -31 108 -33 24 -1 51
-8 59 -15 8 -7 29 -13 47 -15 18 -2 53 -6 78 -9 122 -17 370 -13 555 8 127 14
158 19 240 32 50 9 97 19 105 24 9 4 36 11 60 15 24 4 51 11 60 15 8 5 56 18
105 30 50 11 92 25 93 30 2 6 15 10 28 10 13 0 24 5 24 10 0 6 7 10 15 10 8 0
15 5 15 11 0 7 14 10 35 7 19 -2 35 -1 35 2 0 4 16 15 35 26 19 10 35 22 35
27 0 4 8 7 18 6 27 -3 74 13 96 33 11 10 28 18 38 18 10 0 18 7 18 15 0 8 14
17 35 21 19 3 35 10 35 15 0 5 5 9 11 9 7 0 25 13 41 30 15 16 32 30 36 30 5
0 15 11 22 25 7 14 18 25 23 25 5 0 20 10 32 23 13 12 29 27 37 34 24 22 38
42 38 55 0 7 9 19 19 25 11 7 27 28 37 48 9 19 20 35 25 35 5 0 9 7 9 15 0 9
11 27 25 41 14 14 28 39 32 55 3 16 9 29 13 29 8 0 20 10 143 127 36 35 68 63
71 63 8 0 322 316 369 371 21 24 45 53 55 64 29 33 106 131 127 161 11 15 32
42 46 59 62 73 166 240 225 362 35 73 64 137 64 143 0 7 6 24 14 38 16 30 86
233 86 250 0 6 4 21 9 34 5 13 9 26 10 30 1 4 14 36 27 70 66 164 85 227 129
413 49 205 57 299 50 575 -7 310 -13 425 -30 525 -10 66 -19 106 -31 156 -7
30 -15 64 -17 75 -2 10 -6 26 -9 34 -3 8 -16 51 -28 95 -24 87 -56 188 -70
220 -5 11 -21 49 -36 85 -14 36 -34 83 -44 105 -10 22 -32 74 -49 116 -27 69
-133 283 -235 473 -37 69 -128 205 -176 261 -106 125 -309 325 -435 429 -91
75 -287 216 -301 216 -3 0 -18 8 -32 18 -65 45 -239 109 -367 136 -170 35
-399 37 -538 6 -124 -27 -203 -29 -326 -5 -9 1 -50 6 -91 10 -41 4 -78 9 -81
11 -8 4 -297 22 -302 18z"/>
</g>
</svg>
